<svg width="168" height="70" viewBox="0 0 168 70" fill="none" xmlns="http://www.w3.org/2000/svg">
<g clip-path="url(#clip0_3384_35727)">
<path d="M28.9113 60.1705H15L18.9501 52.0426L15 43.9502H25.5451V54.4206H28.9113V60.1705Z" fill="#B0B0B0"/>
<path d="M133.525 60.1696H153.001L148.931 52.0415L153.001 43.9492H142.193L142.158 52.7546L133.525 60.1696Z" fill="#B0B0B0"/>
<path d="M30.0254 68V2H137.977V68H30.0254Z" fill="#272727"/>
<path d="M140.758 38.3564H26.6855V53.4581H140.758V38.3564Z" fill="#B0B0B0"/>
<path d="M43.2362 42.6753C43.7831 42.9472 44.2148 43.3822 44.5602 43.8717C44.8768 44.4154 45.0495 44.9864 45.0495 45.6118C45.0495 46.2371 44.8768 46.8082 44.5602 47.352C44.2436 47.8686 43.7831 48.2764 43.2075 48.5483C42.6318 48.8202 41.9698 48.9834 41.3366 48.9834H38.3721V42.2946H41.3079C41.9986 42.213 42.6606 42.349 43.2362 42.6753ZM42.5455 47.5151C42.8621 47.3247 43.1499 47.0529 43.3514 46.7538C43.7543 46.0196 43.7543 45.1768 43.3514 44.4698C43.1499 44.1164 42.8621 43.8445 42.5455 43.6541C42.1713 43.4638 41.7683 43.355 41.3654 43.3822H39.7536V47.8686H41.3942C41.7683 47.8142 42.1713 47.7054 42.5455 47.5151Z" fill="#FFFEFD"/>
<path d="M46.1641 41.7119H51.55V42.9189H47.6221V44.7146H51.1929V45.9215H47.6221V47.7761H51.7286V48.9831H46.1641V41.7119Z" fill="#FFFEFD"/>
<path d="M56.2269 43.1024C55.9193 42.9866 55.5837 42.9286 55.2202 42.9286C54.9406 42.9286 54.6889 42.9576 54.4652 43.1024C54.2975 43.2183 54.1856 43.3921 54.1856 43.5949C54.1856 43.7977 54.2695 43.9715 54.3813 44.0874C54.4932 44.2032 54.6889 44.3481 54.8567 44.406C55.1084 44.5219 55.388 44.6088 55.6396 44.6957C56.0312 44.8116 56.4226 44.9564 56.7862 45.1013C57.0937 45.2171 57.3454 45.4779 57.5411 45.7096C57.7928 46.0283 57.8487 46.4049 57.8487 46.8104C57.8487 47.216 57.7369 47.6215 57.4852 47.9692C57.2335 48.2879 56.9259 48.5486 56.5624 48.7224C56.115 48.8962 55.6956 48.9831 55.2202 48.9831C54.661 48.9831 54.1576 48.8672 53.6264 48.6645C53.151 48.4616 52.6756 48.2009 52.2842 47.8533L52.8434 46.6946C53.2069 47.0132 53.5984 47.2739 54.0458 47.4767C54.4373 47.6505 54.8288 47.7664 55.2482 47.7664C55.5558 47.7664 55.8354 47.7374 56.115 47.5637C56.4226 47.3608 56.5065 46.8973 56.3108 46.5787C56.2828 46.5497 56.2828 46.4918 56.2269 46.4918C56.0591 46.3759 55.9193 46.2311 55.7515 46.1731C55.5558 46.0862 55.2762 45.9993 54.9686 45.8834C54.5771 45.7676 54.2136 45.6227 53.8221 45.4779C53.5425 45.362 53.2629 45.1013 53.0671 44.8695C52.8155 44.5509 52.7596 44.1743 52.7596 43.7977C52.7596 43.4211 52.8714 43.0155 53.0671 42.7258C53.3188 42.4072 53.6264 42.1465 53.9899 41.9726C54.4373 41.7988 54.8567 41.7119 55.3321 41.7119C55.7795 41.7119 56.1989 41.7988 56.6463 41.9147C57.0378 42.0306 57.4292 42.2334 57.7928 42.4651L57.2335 43.6528C56.9819 43.3921 56.6183 43.2183 56.2269 43.1024Z" fill="#FFFEFD"/>
<path d="M58.96 41.7119H60.6293V48.9831H58.96V41.7119Z" fill="#FFFEFD"/>
<path d="M67.1385 45.3903H68.3341V48.0706C67.9259 48.3558 67.4593 48.6124 66.9928 48.7265C66.4971 48.8976 66.0014 48.9831 65.5056 48.9831C64.835 48.9831 64.1643 48.812 63.6103 48.4983C63.0272 48.1847 62.5606 47.7285 62.2398 47.1867C61.9191 46.6164 61.7441 45.9606 61.7441 45.3332C61.7441 44.6774 61.9191 44.0786 62.2398 43.5083C62.5606 42.9665 63.0563 42.5388 63.6395 42.1967C64.2518 41.883 64.9225 41.7119 65.5931 41.7119C66.1472 41.7119 66.6429 41.7974 67.1385 41.9971C67.6051 42.1682 68.0425 42.3962 68.4216 42.7384L67.6343 43.7079C67.3427 43.4513 67.0219 43.2517 66.672 43.1091C66.3513 42.9951 65.9722 42.9095 65.5931 42.9095C65.1266 42.9095 64.7184 43.0236 64.3393 43.2232C63.1729 43.879 62.7647 45.3332 63.4354 46.5023C63.9019 47.2437 64.6892 47.7285 65.5931 47.7285C65.8555 47.7285 66.1472 47.7 66.3804 47.6144C66.672 47.5289 66.9344 47.4148 67.1677 47.3008L67.1385 45.3903Z" fill="#FFFEFD"/>
<path d="M74.3575 41.7119H75.6551V48.9831H74.4143L70.8318 43.9879V48.9831H69.5342V41.7119H70.7751L74.3575 46.7072V41.7119Z" fill="#FFFEFD"/>
<path d="M81.8989 48.9831L80.6213 46.8262H78.6899V48.9831H77.3232V41.7147H80.3542C81.1561 41.6851 81.929 41.8919 82.5528 42.3352C83.1176 42.8079 83.3552 43.4579 83.3251 44.1966C83.3251 44.6988 83.2066 45.2011 82.939 45.6739C82.6719 46.0875 82.3152 46.383 81.84 46.5603L83.4442 48.9535L81.8989 48.9831ZM78.6899 45.6148H80.3542C80.7699 45.6443 81.1861 45.5261 81.5723 45.2898C81.8695 45.0239 82.0475 44.6693 81.988 44.2852C81.988 43.9011 81.8695 43.5761 81.5723 43.3102C81.2457 43.0443 80.8 42.9851 80.3542 42.9851H78.6899V45.6148Z" fill="#FFFEFD"/>
<path d="M86.3624 47.245C86.6768 47.5637 87.1626 47.7374 87.62 47.7374C88.0774 47.7664 88.5637 47.5637 88.8781 47.245C89.1925 46.8684 89.3639 46.4338 89.3355 45.9124V41.7119H90.6788V45.9124C90.6788 46.4918 90.5647 47.0132 90.3071 47.5347C90.05 47.9981 89.7067 48.3458 89.2493 48.6065C88.7635 48.8672 88.192 48.9831 87.62 48.9831C87.0485 48.9831 86.4765 48.8672 85.9907 48.6065C85.5333 48.3458 85.1905 47.9981 84.9329 47.5347C84.6758 47.0422 84.5328 46.4628 84.5612 45.9124V41.7119H85.905V45.9124C85.8477 46.3759 86.0191 46.8684 86.3624 47.245Z" fill="#FFFEFD"/>
<path d="M95.7354 43.1489C95.4283 43.0339 95.0927 42.9765 94.7288 42.9765C94.4495 42.9765 94.198 43.0052 93.9743 43.1489C93.8062 43.2639 93.6944 43.4363 93.6944 43.6375C93.6944 43.8387 93.7784 44.0111 93.8902 44.1261C94.0021 44.241 94.198 44.3847 94.3654 44.4422C94.617 44.5572 94.8969 44.6434 95.1484 44.7296C95.5401 44.8446 95.9313 44.9883 96.2947 45.1319C96.6024 45.2469 96.8539 45.5056 97.0498 45.7355C97.3018 46.0516 97.3575 46.4253 97.3575 46.8276C97.3575 47.23 97.2456 47.6323 96.9941 47.9772C96.742 48.2933 96.4349 48.552 96.071 48.7245C95.6236 48.8969 95.2046 48.9831 94.7288 48.9831C94.1696 48.9831 93.6665 48.8682 93.1351 48.667C92.6599 48.4658 92.1847 48.2072 91.793 47.8622L92.3522 46.7126C92.7156 47.0288 93.1073 47.2875 93.5547 47.4886C93.9459 47.6611 94.3376 47.776 94.7572 47.776C95.0643 47.776 95.3442 47.7473 95.6236 47.5748C95.9313 47.3162 95.9875 46.8851 95.7354 46.5402C95.7076 46.5115 95.7076 46.5115 95.652 46.454C95.4839 46.339 95.3442 46.1953 95.1762 46.1378C94.9809 46.0516 94.701 45.9654 94.3933 45.8505C94.0021 45.7355 93.6387 45.5918 93.247 45.4481C92.9676 45.3331 92.6877 45.0745 92.4919 44.8446C92.2404 44.5284 92.1847 44.1548 92.1847 43.7812C92.1847 43.4076 92.2966 43.0052 92.4919 42.7178C92.7439 42.4017 93.0511 42.143 93.415 41.9705C93.8624 41.7981 94.2814 41.7119 94.7572 41.7119C95.2046 41.7119 95.6236 41.7981 96.071 41.9131C96.4627 42.028 96.8539 42.2292 97.2178 42.4592L96.6864 43.6087C96.4905 43.4363 96.1272 43.2639 95.7354 43.1489Z" fill="#FFFEFD"/>
<path d="M98.4688 41.7119H99.8009V44.8155H103.258V41.7119H104.59V48.9831H103.258V46.0864H99.8009V48.9831H98.4688V41.7119Z" fill="#FFFEFD"/>
<path d="M110.69 44.7725C110.291 44.7725 109.922 44.9345 109.637 45.2044C109.353 45.5013 109.239 45.9062 109.239 46.284C109.21 46.7159 109.353 47.1207 109.637 47.4446C109.922 47.7146 110.291 47.8765 110.69 47.8765C111.259 47.9035 111.771 47.6876 112.141 47.3097L112.938 47.9575C112.682 48.3083 112.369 48.5242 111.999 48.7132C111.543 48.9021 111.117 48.9831 110.633 48.9831C110.15 48.9831 109.665 48.8752 109.21 48.6862C108.812 48.4973 108.471 48.1734 108.271 47.7955C107.816 46.9588 107.816 45.9872 108.271 45.1504C108.471 44.7725 108.812 44.4487 109.21 44.2597C109.665 44.0168 110.15 43.9088 110.633 43.9629C111.088 43.9629 111.515 44.0438 111.942 44.2058C112.312 44.3677 112.625 44.5836 112.881 44.9075L112.084 45.6093C111.8 45.0425 111.259 44.7725 110.69 44.7725Z" fill="#FFFEFD"/>
<path d="M117.751 43.7301C118.141 43.9372 118.502 44.2923 118.697 44.7066C118.947 45.1801 119.059 45.6832 119.059 46.1863C119.059 46.6893 118.947 47.2516 118.697 47.6659C118.447 48.0802 118.141 48.4353 117.751 48.6424C117.306 48.9088 116.805 49.0271 116.332 48.9679C115.803 48.9679 115.33 48.8496 114.857 48.6424C114.468 48.4353 114.106 48.0802 113.856 47.6659C113.605 47.1924 113.494 46.6893 113.494 46.1863C113.494 45.6832 113.605 45.1801 113.856 44.7066C114.106 44.2923 114.412 43.9372 114.857 43.7301C115.303 43.4638 115.803 43.3454 116.332 43.4046C116.777 43.375 117.306 43.4933 117.751 43.7301ZM115.191 45.0026C114.635 45.7128 114.635 46.7189 115.191 47.4587C115.47 47.7547 115.859 47.9618 116.249 47.9322C116.638 47.9322 117.028 47.7547 117.306 47.4587C117.862 46.7485 117.862 45.7424 117.306 45.0026C117.028 44.7066 116.638 44.5291 116.249 44.5291C115.887 44.5291 115.47 44.7066 115.191 45.0026Z" fill="#FFFEFD"/>
<path d="M128.54 44.079C128.903 44.4805 129.1 45.054 129.071 45.5989V48.9829H127.784V46.0004C127.812 45.685 127.7 45.3122 127.476 45.054C127.224 44.796 126.944 44.6812 126.636 44.7386C126.272 44.7386 125.908 44.9107 125.685 45.1974C125.433 45.5129 125.321 45.8857 125.321 46.2872V48.9542H123.978V45.9717C124.005 45.6563 123.894 45.2835 123.669 45.0253C123.418 44.7673 123.138 44.7099 122.83 44.7099C122.466 44.7099 122.074 44.882 121.822 45.1688C121.57 45.4842 121.459 45.857 121.459 46.2585V48.9256H120.171V43.5341H121.486V44.5092C122.13 43.4481 123.473 43.1613 124.509 43.7636C124.817 44.0216 125.069 44.3371 125.153 44.7099C125.461 43.9069 126.272 43.3621 127.112 43.3907C127.7 43.4194 128.176 43.6489 128.54 44.079Z" fill="#FFFEFD"/>
<path d="M107.22 48.089C107.321 48.2381 107.372 48.4619 107.372 48.6856C107.372 48.9093 107.347 49.0957 107.22 49.2822C107.119 49.4313 106.967 49.5432 106.815 49.5432C106.663 49.5432 106.537 49.4313 106.411 49.2822C106.309 49.1331 106.259 48.9093 106.259 48.6856C106.259 48.4619 106.284 48.2754 106.411 48.089C106.512 47.9398 106.663 47.8652 106.815 47.8652C106.967 47.8652 107.119 47.9771 107.22 48.089Z" fill="#FFFEFD"/>
<path d="M72.3143 60.1689H37.2578V60.7283H72.3143V60.1689Z" fill="white"/>
<path d="M130.742 60.1689H95.6855V60.7283H130.742V60.1689Z" fill="white"/>
<path d="M79.9473 61.7796V60.9272H78.5233C79.4921 60.2683 79.9178 59.7739 79.9178 59.1883C79.9178 58.4327 79.2584 57.9326 78.3425 57.9326C77.7994 57.9326 77.1812 58.12 76.7666 58.5635L77.3208 59.2112C77.6013 58.9556 77.9279 58.7962 78.3597 58.7962C78.6457 58.7962 78.8967 58.9327 78.8967 59.1883C78.8967 59.5692 78.5817 59.8304 76.8951 61.0184V61.7796H79.9473Z" fill="white"/>
<path d="M82.0028 61.8479C83.1407 61.8479 83.6721 60.8875 83.6721 59.8874C83.6721 58.8874 83.1407 57.9326 82.0028 57.9326C80.8648 57.9326 80.334 58.8874 80.334 59.8874C80.334 60.8875 80.8648 61.8479 82.0028 61.8479ZM82.0028 60.9843C81.5359 60.9843 81.3495 60.5581 81.3495 59.8874C81.3495 59.2168 81.5359 58.7962 82.0028 58.7962C82.4696 58.7962 82.6566 59.2168 82.6566 59.8874C82.6566 60.5581 82.4696 60.9843 82.0028 60.9843Z" fill="white"/>
<path d="M87.1328 61.7796V60.9272H85.7089C86.6776 60.2683 87.1033 59.7739 87.1033 59.1883C87.1033 58.4327 86.4439 57.9326 85.528 57.9326C84.9855 57.9326 84.3667 58.12 83.9521 58.5635L84.5069 59.2112C84.7868 58.9556 85.1135 58.7962 85.5453 58.7962C85.8313 58.7962 86.0822 58.9327 86.0822 59.1883C86.0822 59.5692 85.7673 59.8304 84.0807 61.0184V61.7796H87.1328Z" fill="white"/>
<path d="M90.6768 61.7796V60.9272H89.2528C90.2216 60.2683 90.6478 59.7739 90.6478 59.1883C90.6478 58.4327 89.9884 57.9326 89.072 57.9326C88.5294 57.9326 87.9107 58.12 87.4961 58.5635L88.0509 59.2112C88.3308 58.9556 88.6574 58.7962 89.0892 58.7962C89.3752 58.7962 89.6262 58.9327 89.6262 59.1883C89.6262 59.5692 89.3112 59.8304 87.6246 61.0184V61.7796H90.6768Z" fill="white"/>
<path d="M68.4924 17.5347L65.7476 10.5059H63.3746L60.6299 17.5347H62.7623L63.1231 16.523H65.9991L66.36 17.5347H68.4924ZM65.4851 14.9423H63.6371L64.5666 12.2973L65.4851 14.9423Z" fill="white"/>
<path d="M72.2512 17.6608C74.0118 17.6608 74.9634 16.6703 75.4336 15.7745L73.8149 15.0369C73.5745 15.5954 72.9513 16.059 72.2512 16.059C71.0593 16.059 70.2174 15.1739 70.2174 14.0252C70.2174 12.866 71.0593 11.9914 72.2512 11.9914C72.9513 11.9914 73.5745 12.4551 73.8149 13.0136L75.4336 12.2654C74.9634 11.3486 74.0118 10.3896 72.2512 10.3896C70.0096 10.3896 68.3037 11.8544 68.3037 14.0252C68.3037 16.1855 70.0096 17.6608 72.2512 17.6608Z" fill="white"/>
<path d="M79.8269 17.6608C81.5875 17.6608 82.5385 16.6703 83.0087 15.7745L81.3906 15.0369C81.1502 15.5954 80.5264 16.059 79.8269 16.059C78.635 16.059 77.7931 15.1739 77.7931 14.0252C77.7931 12.866 78.635 11.9914 79.8269 11.9914C80.5264 11.9914 81.1502 12.4551 81.3906 13.0136L83.0087 12.2654C82.5385 11.3486 81.5875 10.3896 79.8269 10.3896C77.585 10.3896 75.8789 11.8544 75.8789 14.0252C75.8789 16.1855 77.585 17.6608 79.8269 17.6608Z" fill="white"/>
<path d="M90.0425 17.5347L88.5552 14.9529C89.244 14.7211 90.0097 14.0677 90.0097 12.8453C90.0097 11.5386 89.091 10.5059 87.4729 10.5059H83.8203V17.5347H85.7011V15.1742H86.6638L87.8885 17.5347H90.0425ZM87.1885 13.5935H85.7011V12.0866H87.1885C87.6915 12.0866 88.0961 12.35 88.0961 12.8348C88.0961 13.33 87.6915 13.5935 87.1885 13.5935Z" fill="white"/>
<path d="M96.3968 17.5347V15.954H92.9306V14.7632H96.3205V13.1826H92.9306V12.0866H96.3968V10.5059H91.0498V17.5347H96.3968Z" fill="white"/>
<path d="M100.562 17.5347C102.847 17.5347 104.499 16.1964 104.499 14.015C104.499 11.8337 102.847 10.5059 100.551 10.5059H97.4893V17.5347H100.562ZM100.551 15.954H99.3701V12.0866H100.562C101.896 12.0866 102.574 12.9296 102.574 14.015C102.574 15.0583 101.831 15.954 100.551 15.954Z" fill="white"/>
<path d="M107.315 17.5347V10.5059H105.435V17.5347H107.315Z" fill="white"/>
<path d="M112.139 17.5347V12.0866H114.172V10.5059H108.213V12.0866H110.257V17.5347H112.139Z" fill="white"/>
<path d="M120.412 17.5347V15.954H116.946V14.7632H120.336V13.1826H116.946V12.0866H120.412V10.5059H115.065V17.5347H120.412Z" fill="white"/>
<path d="M124.58 17.5347C126.865 17.5347 128.516 16.1964 128.516 14.015C128.516 11.8337 126.865 10.5059 124.568 10.5059H121.507V17.5347H124.58ZM124.568 15.954H123.388V12.0866H124.58C125.914 12.0866 126.592 12.9296 126.592 14.015C126.592 15.0583 125.848 15.954 124.568 15.954Z" fill="white"/>
<path d="M72.098 31.9988L67.8999 20.6445H64.2705L60.0723 31.9988H63.3338L63.8857 30.3645H68.2847L68.8366 31.9988H72.098ZM67.4985 27.8111H64.6719L66.0936 23.5384L67.4985 27.8111Z" fill="white"/>
<path d="M77.8535 32.2028C79.9613 32.2028 81.6001 31.3346 82.7875 29.9898V25.4788H77.4022V28.0492H79.9107V28.9344C79.5095 29.2749 78.6731 29.6153 77.8535 29.6153C76.0306 29.6153 74.7429 28.1854 74.7429 26.3299C74.7429 24.4574 76.0306 23.0445 77.8535 23.0445C78.9408 23.0445 79.7938 23.7424 80.2117 24.4914L82.6206 23.2147C81.851 21.8018 80.3458 20.457 77.8535 20.457C74.5254 20.457 71.8154 22.7211 71.8154 26.3299C71.8154 29.9388 74.5254 32.2028 77.8535 32.2028Z" fill="white"/>
<path d="M92.6494 31.9997V29.4463H87.3476V27.5227H92.5326V24.9693H87.3476V23.1989H92.6494V20.6455H84.4707V31.9997H92.6494Z" fill="white"/>
<path d="M104.691 31.9997V20.6455H101.798V26.8929L97.2816 20.6455H94.3213V31.9997H97.1981V25.4289L101.915 31.9997H104.691Z" fill="white"/>
<path d="M112.169 32.2028C114.862 32.2028 116.317 30.6026 117.036 29.1557L114.561 27.9641C114.193 28.8663 113.24 29.6153 112.169 29.6153C110.346 29.6153 109.058 28.1854 109.058 26.3299C109.058 24.4574 110.346 23.0445 112.169 23.0445C113.24 23.0445 114.193 23.7935 114.561 24.6957L117.036 23.4871C116.317 22.0061 114.862 20.457 112.169 20.457C108.74 20.457 106.131 22.8232 106.131 26.3299C106.131 29.8196 108.74 32.2028 112.169 32.2028Z" fill="white"/>
<path d="M123.743 31.9997V27.4206L127.959 20.6455H124.697L122.305 24.8331L119.88 20.6455H116.635L120.867 27.4206V31.9997H123.743Z" fill="white"/>
<path d="M44.4927 22.6941C44.4485 22.6941 44.4485 22.6507 44.4927 22.6941L44.2721 22.5638L44.228 22.5205L39.0231 18.8752C39.0231 18.8752 38.9791 18.8752 38.9791 18.8318L38.8908 18.7451L38.8467 18.7017H38.7585L37.2588 17.6602L40.2141 18.0941C40.3464 18.0941 40.3905 18.1375 40.5229 18.1809C40.5669 18.1809 40.6552 18.2243 40.6552 18.2243C40.7875 18.2677 40.8316 18.3111 40.9199 18.3545C41.008 18.3979 41.0522 18.4413 41.1404 18.4847C41.1845 18.5281 41.2727 18.5715 41.2727 18.6149C41.3168 18.6583 41.3609 18.6583 41.405 18.7017C41.4933 18.7451 41.5373 18.7884 41.5373 18.8318C41.6697 18.962 41.7579 19.0922 41.8902 19.179L44.228 22.4337L44.2721 22.4771L44.4927 22.6941Z" fill="#BA5C18"/>
<path d="M44.172 27.1686L43.96 26.8408L43.9176 26.7998L37.2588 17.6602L38.7008 18.6438L38.9553 18.8077L43.96 22.2505H44.0024L44.172 22.3734C44.172 22.3734 44.2144 22.3734 44.2144 22.4144L44.4265 22.2505L51.1701 17.6602L44.3841 26.8408L44.3417 26.8818L44.172 27.1686Z" fill="#F2751A"/>
<path d="M44.2584 21.0163L44.0371 20.6668L43.9929 20.6231L42.2666 18.2634L43.9929 18.613H44.0371L44.2584 18.6567L44.4798 18.613L46.1618 18.2197L44.4798 20.6668V20.7104L44.2584 21.0163Z" fill="#BA5C18"/>
<path d="M51.1686 17.6602L49.1573 17.9614L48.3931 18.0904C47.7897 18.1765 47.2266 18.5207 46.8645 19.08L44.7325 22.3498L44.6923 22.3929L44.4912 22.6941L44.7325 22.4359L44.7728 22.3929L44.4912 22.6941L49.9216 18.5637L51.1686 17.6602Z" fill="#BA5C18"/>
<path d="M45.6049 10.9683C45.6049 12.8169 42.1527 13.7833 42.1527 15.758C42.1072 16.2201 42.2435 16.6823 42.4706 17.1025C42.4706 17.1025 41.1533 15.9261 41.1533 14.6656C41.1533 13.4052 42.4252 11.5145 42.4252 11.5145C42.4252 12.3548 42.7886 12.6069 43.152 12.6489H43.1974C43.6063 12.6489 43.8334 12.3548 43.8334 11.9347C43.8334 11.5145 43.3337 11.0943 43.3337 10.2541C43.3337 9.45576 44.4239 8.15332 44.4239 8.15332C45.1961 8.99359 45.6049 9.95993 45.6049 10.9683Z" fill="#F2751A"/>
<path d="M44.5465 17.6608C43.5612 17.6608 42.8223 16.8385 42.8223 15.843V15.7997C42.8223 13.5924 45.7371 13.376 45.7371 10.3896C45.8192 10.5195 46.5992 11.6448 46.5992 12.8567C46.5992 14.3715 45.2444 14.761 45.2444 15.4968C45.2444 15.7997 45.3676 16.0161 45.7781 16.0161C45.8192 16.0161 45.8602 16.0161 45.9013 15.9729C46.6813 15.6266 47.215 14.8476 47.2561 13.9387C47.2561 13.982 47.6666 17.6608 44.5465 17.6608Z" fill="#F2751A"/>
<path d="M45.8787 15.8584C45.9229 15.8584 45.967 15.8584 46.0112 15.8163C45.5696 15.9425 43.9355 16.3211 43.9355 15.2274C43.9355 13.8812 46.3645 13.5867 46.3645 12.4509C46.3645 11.7358 46.1878 11.0207 45.7904 10.3896C45.8787 10.5158 46.7178 11.6096 46.7178 12.7875C46.7178 14.2598 45.2605 14.6384 45.2605 15.3536C45.3046 15.6481 45.4813 15.8584 45.8787 15.8584Z" fill="#BA5C18"/>
<path d="M44.4908 11.6911C44.4908 12.7316 43.4434 12.6484 43.3779 12.6068H43.4761C43.7707 12.6068 43.9344 12.3154 43.9344 11.8992C43.9344 11.483 43.5743 11.0668 43.5743 10.2344C43.5743 9.44356 44.3599 8.15332 44.3599 8.15332C44.098 8.69441 43.9671 9.27711 43.9344 9.85976C43.9344 10.817 44.4908 10.9003 44.4908 11.6911Z" fill="#BA5C18"/>
<path d="M43.6844 31.479L42.8223 30.7388H43.8803L44.233 29.4062L44.5465 30.7388H45.6045L44.7424 31.479L45.0559 32.7622L44.1938 31.9725L43.2925 32.7622L43.6844 31.479Z" fill="#F2751A"/>
<path d="M48.6912 31.479L47.8291 30.7388H48.8871L49.2398 29.4062L49.5533 30.7388H50.6114L49.7492 31.479L50.0628 32.7622L49.2006 31.9725L48.2994 32.7622L48.6912 31.479Z" fill="#F2751A"/>
<path d="M38.849 31.479L37.8145 30.7388H39.0841L39.5073 29.4062L39.8835 30.7388H41.1532L40.1186 31.479L40.4948 32.7622L39.4603 31.9725L38.4258 32.7622L38.849 31.479Z" fill="#F2751A"/>
</g>
<defs>
<clipPath id="clip0_3384_35727">
<rect width="138" height="66" fill="white" transform="translate(15 2)"/>
</clipPath>
</defs>
</svg>
