<svg width="168" height="70" viewBox="0 0 168 70" fill="none" xmlns="http://www.w3.org/2000/svg">
<g clip-path="url(#clip0_3384_35837)">
<g filter="url(#filter0_dd_3384_35837)">
<path d="M154.503 16.2646H14.4347C10.2941 16.2646 6.9375 19.6213 6.9375 23.7619V46.4457C6.9375 50.5864 10.2941 53.943 14.4347 53.943H154.503C158.644 53.943 162.001 50.5864 162.001 46.4457V23.7619C162.001 19.6213 158.644 16.2646 154.503 16.2646Z" fill="white"/>
<path d="M154.503 16.584H14.4348C10.4705 16.584 7.25684 19.7977 7.25684 23.7619V46.4458C7.25684 50.41 10.4705 53.6237 14.4348 53.6237H154.503C158.468 53.6237 161.681 50.41 161.681 46.4458V23.7619C161.681 19.7977 158.468 16.584 154.503 16.584Z" stroke="#E9EBF4" stroke-width="1.19"/>
</g>
<path d="M95.5156 29.6211H101.4V30.623H96.7435V34.0521H100.497V35.054H96.7435V38.7089H101.654V39.7108H95.5156V29.6211Z" fill="#19213D"/>
<path d="M105.507 35.9144L103.037 32.3301H104.406L106.213 35.0113L108.005 32.3301H109.274L106.834 35.8297L109.529 39.7104H108.146L106.156 36.7328L104.124 39.7104H102.868L105.507 35.9144Z" fill="#19213D"/>
<path d="M111.278 32.3301H112.45V33.572C112.553 33.3932 112.69 33.2239 112.859 33.0639C113.038 32.8946 113.236 32.7488 113.452 32.6264C113.668 32.4948 113.903 32.3913 114.157 32.316C114.411 32.2407 114.675 32.2031 114.948 32.2031C115.427 32.2031 115.874 32.2878 116.288 32.4571C116.702 32.6265 117.055 32.8711 117.346 33.1909C117.647 33.5108 117.883 33.9012 118.052 34.3622C118.221 34.8231 118.306 35.3405 118.306 35.9144V36.0273C118.306 36.5918 118.226 37.1092 118.066 37.5796C117.906 38.0406 117.68 38.4404 117.389 38.7791C117.097 39.1177 116.744 39.3812 116.331 39.5693C115.916 39.748 115.456 39.8374 114.948 39.8374C114.336 39.8374 113.818 39.7057 113.395 39.4423C112.981 39.1789 112.666 38.8637 112.45 38.4968V42.2787H111.278V32.3301ZM114.835 38.8637C115.568 38.8637 116.128 38.6285 116.514 38.1581C116.899 37.6784 117.093 36.9869 117.093 36.0838V35.9709C117.093 35.5099 117.031 35.1054 116.909 34.7573C116.787 34.3998 116.622 34.1082 116.415 33.8824C116.217 33.6472 115.977 33.4732 115.696 33.3602C115.422 33.238 115.131 33.1768 114.82 33.1768C114.482 33.1768 114.162 33.2333 113.861 33.3461C113.569 33.459 113.316 33.6331 113.099 33.8682C112.882 34.0941 112.713 34.3857 112.591 34.7432C112.469 35.0913 112.407 35.5005 112.407 35.9709V36.0838C112.407 36.5542 112.464 36.9634 112.577 37.3114C112.699 37.6595 112.864 37.9512 113.071 38.1864C113.287 38.4122 113.546 38.5815 113.847 38.6944C114.148 38.8073 114.477 38.8637 114.835 38.8637Z" fill="#19213D"/>
<path d="M123.312 39.8374C122.785 39.8374 122.305 39.748 121.872 39.5693C121.44 39.3905 121.063 39.1413 120.743 38.8214C120.423 38.4921 120.174 38.097 119.996 37.636C119.826 37.175 119.741 36.6623 119.741 36.0979V35.985C119.741 35.4299 119.826 34.9219 119.996 34.4609C120.165 33.9905 120.4 33.5907 120.701 33.2615C121.011 32.9228 121.379 32.6641 121.801 32.4854C122.225 32.2972 122.691 32.2031 123.199 32.2031C123.622 32.2031 124.031 32.2737 124.426 32.4148C124.831 32.5465 125.188 32.7581 125.499 33.0498C125.809 33.3415 126.054 33.7224 126.233 34.1928C126.421 34.6538 126.515 35.2136 126.515 35.8721V36.2531H120.955C120.983 37.0998 121.195 37.7489 121.59 38.2005C121.985 38.6426 122.564 38.8637 123.326 38.8637C124.483 38.8637 125.137 38.4357 125.287 37.5796H126.459C126.327 38.3228 125.979 38.8873 125.414 39.273C124.85 39.6493 124.149 39.8374 123.312 39.8374ZM125.316 35.3076C125.259 34.5456 125.042 34 124.666 33.6707C124.3 33.3415 123.81 33.1768 123.199 33.1768C122.597 33.1768 122.103 33.3697 121.717 33.7554C121.341 34.1317 121.101 34.6491 120.998 35.3076H125.316Z" fill="#19213D"/>
<path d="M128.478 32.3301H129.649V33.6566C129.762 33.4496 129.888 33.2615 130.03 33.0921C130.18 32.9134 130.349 32.7629 130.538 32.6406C130.726 32.5089 130.947 32.4054 131.201 32.3301C131.455 32.2549 131.746 32.2125 132.076 32.2031V33.3038C131.709 33.3226 131.375 33.3697 131.074 33.4449C130.773 33.5202 130.514 33.6472 130.298 33.826C130.091 34.0047 129.931 34.2446 129.818 34.5456C129.705 34.8373 129.649 35.2088 129.649 35.6604V39.7104H128.478V32.3301Z" fill="#19213D"/>
<path d="M136.261 39.8097C135.583 39.8097 135.08 39.6309 134.751 39.2735C134.431 38.9159 134.271 38.4456 134.271 37.8623V33.3184H133.213V32.3306H134.271V30.6514H135.442V32.3306H137.164V33.3184H135.442V37.7494C135.442 38.4644 135.748 38.8219 136.359 38.8219C136.548 38.8219 136.712 38.8078 136.854 38.7796C136.995 38.7513 137.131 38.7137 137.263 38.6667V39.6544C137.14 39.7015 137.004 39.7391 136.854 39.7674C136.703 39.7956 136.505 39.8097 136.261 39.8097Z" fill="#19213D"/>
<path d="M141.484 39.8374C140.601 39.8374 139.904 39.6304 139.396 39.2165C138.898 38.7932 138.629 38.2005 138.592 37.4385H139.735C139.782 37.8806 139.932 38.2287 140.186 38.4827C140.45 38.7367 140.878 38.8637 141.47 38.8637C142.035 38.8637 142.444 38.7696 142.698 38.5815C142.952 38.3839 143.079 38.0876 143.079 37.6925C143.079 37.3068 142.933 37.0292 142.641 36.8599C142.36 36.6906 141.931 36.5542 141.358 36.4507C140.878 36.366 140.473 36.2672 140.144 36.1543C139.815 36.032 139.551 35.8862 139.354 35.7168C139.156 35.5475 139.01 35.3453 138.916 35.1101C138.832 34.8749 138.789 34.5974 138.789 34.2775C138.789 33.9388 138.864 33.6425 139.015 33.3885C139.165 33.1251 139.359 32.9087 139.594 32.7394C139.838 32.5606 140.106 32.4289 140.398 32.3442C140.699 32.2501 140.996 32.2031 141.287 32.2031C141.616 32.2031 141.931 32.2407 142.233 32.316C142.534 32.3818 142.801 32.4995 143.037 32.6688C143.282 32.8381 143.484 33.0592 143.643 33.332C143.803 33.6048 143.907 33.9388 143.954 34.334H142.825C142.741 33.9294 142.576 33.6378 142.331 33.459C142.096 33.2709 141.743 33.1768 141.273 33.1768C140.85 33.1768 140.511 33.2756 140.257 33.4731C140.003 33.6613 139.876 33.9153 139.876 34.2352C139.876 34.4045 139.9 34.5503 139.946 34.6726C140.003 34.7855 140.097 34.889 140.229 34.9831C140.361 35.0677 140.535 35.1477 140.751 35.223C140.977 35.2888 141.259 35.35 141.598 35.4064C141.974 35.4817 142.322 35.5664 142.641 35.6604C142.962 35.7451 143.235 35.8674 143.46 36.0273C143.696 36.1778 143.874 36.3801 143.997 36.6341C144.128 36.8787 144.194 37.1986 144.194 37.5937C144.194 38.2711 143.968 38.8167 143.517 39.2306C143.065 39.6352 142.388 39.8374 141.484 39.8374Z" fill="#19213D"/>
<path d="M45.8004 33.3163C45.8004 32.1464 44.6626 30.904 42.6942 30.904C40.4836 30.904 38.0552 32.5256 37.6838 35.7608C37.3049 39.0283 39.3378 40.4806 41.3874 40.4806C43.4364 40.4806 44.5097 39.6818 45.6066 38.6169C44.6626 37.4309 43.4444 37.9795 43.2104 38.1006C42.9523 38.2296 42.6217 38.4071 41.9439 38.4071C41.1534 38.4071 40.3462 38.0521 40.3462 36.5757C45.4129 36.0755 45.8004 34.4861 45.8004 33.3163ZM43.2915 33.5099C43.2587 33.873 43.1138 34.4942 40.548 34.8411C41.0884 32.921 42.1215 32.7757 42.5976 32.7757C43.0414 32.7757 43.3237 33.1226 43.2915 33.5099ZM34.7069 33.8245C34.7069 33.8245 33.618 37.2453 33.5289 37.5277C33.4967 37.2373 32.6981 31.0976 32.6981 31.0976C30.8425 31.0976 29.8501 32.4207 29.3257 33.8165C29.3257 33.8165 28.0026 37.2453 27.8896 37.5358C27.8816 37.2695 27.688 33.8569 27.688 33.8569C27.575 32.1464 26.0098 31.1057 24.7432 31.1057L26.276 40.408C28.2204 40.3999 29.2693 39.0848 29.8178 37.6891C29.8178 37.6891 30.9877 34.6636 31.0361 34.5265C31.0442 34.6555 31.8752 40.408 31.8752 40.408C33.8273 40.408 34.8765 39.1736 35.4411 37.8262L38.176 31.1057C36.2477 31.1057 35.2313 32.4207 34.7069 33.8245ZM52.9644 30.8878C51.7628 30.8878 50.8429 31.5414 50.0685 32.5014V32.4933L50.7619 26.9023C49.1647 26.9023 47.8655 28.29 47.6154 30.3554L46.4052 40.3353C47.3251 40.3353 48.3012 40.0691 48.8256 39.3914C49.2935 39.9965 49.9955 40.4806 51.0366 40.4806C53.7313 40.4806 55.5785 37.3502 55.5785 34.4135C55.5624 31.735 54.2636 30.8878 52.9644 30.8878ZM52.7143 35.6882C52.432 37.326 51.5207 38.4394 50.6411 38.4394C49.7535 38.4394 49.3746 38.044 49.3746 38.044C49.5436 36.608 49.6488 35.7286 49.9714 34.9702C50.2939 34.2118 51.0608 33.0016 51.8594 33.0016C52.6418 33.0016 52.9971 34.0424 52.7143 35.6882ZM62.3072 31.1057H60.4272L60.4353 31.0089C60.5646 29.7825 60.855 29.1371 61.8151 29.0322C62.4687 28.9677 62.7591 28.6289 62.8315 28.2577C62.8879 27.9673 63.0655 26.9588 63.0655 26.9588C59.29 26.9346 58.104 28.5643 57.797 31.0492L57.789 31.1057H57.7487C57.1359 31.1057 56.4581 31.7995 56.3448 32.6789L56.3046 33.0016H57.5631L56.5064 41.7311L56.1838 43.2962C56.2241 43.2962 56.2724 43.3043 56.3126 43.3043C58.0799 43.2398 59.209 41.844 59.4591 39.819L60.2823 33.0016H60.8711C61.4523 33.0016 62.1296 32.4207 62.2508 31.4526L62.3072 31.1057ZM72.0853 30.9443C69.915 30.9443 67.866 32.5417 67.2365 35.0509C66.6075 37.56 67.5596 40.529 70.7543 40.529C73.9411 40.529 75.7808 37.4389 75.7808 34.8653C75.7808 32.3078 74.0457 30.9443 72.0853 30.9443ZM72.9649 35.6076C72.8522 36.7451 72.3515 38.4717 70.9803 38.4717C69.6005 38.4717 69.7942 36.4547 69.9316 35.4946C70.0765 34.47 70.6492 33.0097 71.884 33.0097C72.989 33.0097 73.0942 34.3248 72.9649 35.6076ZM86.5028 33.8245C86.5028 33.8245 85.4134 37.2453 85.3249 37.5277C85.2927 37.2373 84.4941 31.0976 84.4941 31.0976C82.6383 31.0976 81.646 32.4207 81.1217 33.8165C81.1217 33.8165 79.7983 37.2453 79.6856 37.5358C79.6775 37.2695 79.4838 33.8569 79.4838 33.8569C79.3705 32.1464 77.8056 31.1057 76.5391 31.1057L78.0637 40.408C80.0081 40.3999 81.0567 39.0848 81.6058 37.6891C81.6058 37.6891 82.7757 34.6636 82.8159 34.5265C82.832 34.6555 83.6547 40.408 83.6547 40.408C85.6071 40.408 86.6563 39.1736 87.2209 37.8262L89.9557 31.1057C88.0356 31.1057 87.0191 32.4207 86.5028 33.8245ZM64.082 26.9588L62.5009 39.7141L62.1784 41.2873C62.2186 41.2873 62.2669 41.2954 62.3072 41.2954C64.0095 41.2712 65.2197 39.7787 65.4456 37.8988L66.3574 30.5813C66.6317 28.3465 65.3002 26.9588 64.082 26.9588Z" fill="#19213D"/>
</g>
<defs>
<filter id="filter0_dd_3384_35837" x="-44.3967" y="-24.5674" width="257.732" height="142.474" filterUnits="userSpaceOnUse" color-interpolation-filters="sRGB">
<feFlood flood-opacity="0" result="BackgroundImageFix"/>
<feColorMatrix in="SourceAlpha" type="matrix" values="0 0 0 0 0 0 0 0 0 0 0 0 0 0 0 0 0 0 127 0" result="hardAlpha"/>
<feOffset dy="12.6287"/>
<feGaussianBlur stdDeviation="25.5294"/>
<feColorMatrix type="matrix" values="0 0 0 0 0.262745 0 0 0 0 0.32549 0 0 0 0 1 0 0 0 0.06 0"/>
<feBlend mode="normal" in2="BackgroundImageFix" result="effect1_dropShadow_3384_35837"/>
<feColorMatrix in="SourceAlpha" type="matrix" values="0 0 0 0 0 0 0 0 0 0 0 0 0 0 0 0 0 0 127 0" result="hardAlpha"/>
<feOffset dy="-1.13108"/>
<feGaussianBlur stdDeviation="19.7128"/>
<feColorMatrix type="matrix" values="0 0 0 0 0.0969792 0 0 0 0 0.127894 0 0 0 0 0.2375 0 0 0 0.03 0"/>
<feBlend mode="normal" in2="effect1_dropShadow_3384_35837" result="effect2_dropShadow_3384_35837"/>
<feBlend mode="normal" in="SourceGraphic" in2="effect2_dropShadow_3384_35837" result="shape"/>
</filter>
<clipPath id="clip0_3384_35837">
<rect width="168" height="70" fill="white"/>
</clipPath>
</defs>
</svg>
