<svg width="auto" height="auto" viewBox="0 0 96 25" fill="none" xmlns="http://www.w3.org/2000/svg">
<path d="M13.4229 6.82563C12.0612 5.36761 10.3656 4.60256 8.40735 4.55712C6.36288 4.4738 4.58096 5.2123 3.08038 6.71959C1.60987 8.20803 0.863281 9.99933 0.863281 12.0558V23.9817H3.63186V17.9335C4.8735 18.9712 6.32911 19.5165 7.97596 19.581C9.99416 19.6567 11.7948 18.9334 13.2841 17.4337C14.7547 15.9225 15.4937 14.1046 15.4937 12.0292C15.4937 10.0372 14.7959 8.27995 13.4229 6.82563ZM11.3072 15.4188C10.4106 16.324 9.36395 16.7633 8.11103 16.7633C6.87301 16.7633 5.86395 16.3278 5.01606 15.4302C4.13828 14.4986 3.69939 13.4381 3.68061 12.1884C3.65813 10.8476 4.09702 9.71532 5.01606 8.72685C5.88643 7.80652 6.89557 7.35962 8.09595 7.35962C8.17477 7.35962 8.261 7.36341 8.33982 7.36341H8.3511C9.55527 7.4051 10.5606 7.89361 11.431 8.85185C12.2938 9.80999 12.7064 10.8931 12.6839 12.158C12.6614 13.4419 12.2075 14.5061 11.3072 15.4188Z" fill="currentColor"></path>
<path d="M28.7635 13.201C28.7635 14.1705 28.4109 14.9961 27.6944 15.7194C26.9778 16.4201 26.175 16.761 25.2334 16.761C24.2768 16.761 23.4666 16.4201 22.7575 15.7232C22.0523 15.0113 21.7071 14.1819 21.7071 13.1972V4.55859H18.8711V12.9927C18.8711 14.856 19.475 16.4353 20.668 17.6926C21.8834 18.9462 23.4215 19.5824 25.2372 19.5824C27.0604 19.5824 28.5947 18.9462 29.7839 17.6926C30.9918 16.4467 31.6033 14.8673 31.6033 12.9927V4.55859H28.7672V13.201H28.7635Z" fill="currentColor"></path>
<path d="M56.2746 4.55795C54.9989 4.6148 53.8661 5.1412 52.9323 5.94025V0.157227H50.0957V19.5856H52.9806V10.8145C52.9806 9.80325 53.2993 9.0117 53.9565 8.39062C54.6198 7.74301 55.4494 7.32264 56.4512 7.30369C57.3927 7.29232 58.2136 7.72406 58.9191 8.43223C59.6436 9.16322 59.9925 9.9888 59.9925 10.9583V19.5856H62.8058V11.1439C62.8058 9.29579 62.1529 7.71269 60.8625 6.43642C59.5833 5.17144 58.056 4.48221 56.2746 4.55795Z" fill="currentColor"></path>
<path d="M95.4108 10.6182C94.8113 11.2999 93.9292 11.7279 92.9541 11.7279C92.8602 11.7279 92.7663 11.7241 92.6724 11.7165C92.6767 11.7772 92.6767 11.8377 92.6801 11.9021C92.6991 13.2579 92.2563 14.3979 91.3182 15.3863C90.3957 16.3558 89.3155 16.8103 88.0173 16.7422C86.7872 16.6778 85.7742 16.1968 84.93 15.25C84.0824 14.3107 83.6732 13.22 83.6991 11.9248C83.7223 10.6258 84.1642 9.56161 85.0497 8.66402C85.943 7.76272 86.9965 7.3234 88.2723 7.3234C88.7934 7.3234 89.2775 7.40291 89.7281 7.56951C89.9675 6.58113 90.6429 5.76683 91.5362 5.33888C90.5903 4.8428 89.5515 4.60416 88.4075 4.55872C86.3289 4.47919 84.5398 5.17599 83.0806 6.672C81.6058 8.16035 80.8633 9.96682 80.8633 12.0574C80.8633 14.0495 81.5576 15.803 82.9264 17.2648C84.2883 18.7115 85.9766 19.4803 87.9501 19.556C88.0397 19.5636 88.1301 19.5636 88.2197 19.5636C89.9227 19.5636 91.4311 19.0107 92.7249 17.9124V19.5826H95.49V12.0498C95.5159 11.5575 95.4866 11.0803 95.4108 10.6182Z" fill="currentColor"></path>
<path d="M94.3999 8.37662C94.3999 9.18712 93.7547 9.84602 92.9519 9.84602C92.5539 9.84602 92.205 9.69079 91.9466 9.43323C91.8148 9.30445 91.7106 9.1568 91.6348 8.99012C91.5452 8.80457 91.4961 8.59628 91.4961 8.37662C91.4961 7.56991 92.1456 6.90723 92.9519 6.90723C93.2629 6.90723 93.5523 7.00948 93.7883 7.17986C94.0174 7.33897 94.1932 7.56991 94.2948 7.83126C94.3663 7.99786 94.3999 8.18349 94.3999 8.37662Z" fill="currentColor"></path>
<path d="M79.1243 4.5587H75.2454L69.0631 10.6788V0.157965L66.1816 0.154175V19.5826L69.0631 19.5863V14.0078L74.9491 19.5826H79.1278L71.5198 12.2656L79.1243 4.5587Z" fill="currentColor"></path>
<path d="M45.8812 12.9158C45.3897 12.3553 44.7895 11.935 44.0993 11.6623C43.4202 11.3934 42.5349 11.1321 41.4732 10.8859C40.6968 10.6928 40.0816 10.5223 39.6426 10.3709C39.2075 10.2232 38.8435 10.0224 38.5622 9.77247C38.2884 9.52628 38.1533 9.21953 38.1533 8.83327C38.1533 8.26896 38.3897 7.82964 38.8811 7.48878C39.3725 7.14413 40.1415 6.96995 41.1656 6.96995C41.7921 6.96995 42.4486 7.06462 43.1201 7.25396C43.7917 7.44338 44.4443 7.72739 45.0596 8.09099L45.1534 8.14397L46.0575 5.8906L45.9937 5.84891C45.3748 5.43233 44.632 5.11042 43.7804 4.88697C42.9326 4.66731 42.0585 4.55371 41.1844 4.55371C39.9239 4.55371 38.8435 4.75061 37.9732 5.13696C37.0954 5.527 36.4314 6.06099 35.9925 6.72755C35.5573 7.39411 35.3322 8.14018 35.3322 8.95447C35.3322 9.9202 35.5836 10.7004 36.0787 11.2722C36.5702 11.8365 37.1667 12.2607 37.8495 12.522C38.5247 12.7833 39.4175 13.0484 40.5055 13.3098C41.2782 13.5029 41.8972 13.6733 42.3361 13.8248C42.7712 13.9724 43.1352 14.177 43.4165 14.4345C43.6904 14.6883 43.8254 14.9988 43.8254 15.3851C43.8254 15.9192 43.5816 16.3395 43.0826 16.669C42.5762 17.0023 41.7921 17.1689 40.753 17.1689C39.9089 17.1689 39.0574 17.0212 38.2208 16.7296C37.3843 16.438 36.6678 16.0592 36.0938 15.6009L36 15.5252L35.0059 17.7786L35.0584 17.8241C35.6661 18.3543 36.4989 18.7822 37.5306 19.1003C38.5622 19.4185 39.6464 19.5776 40.753 19.5776C42.0134 19.5776 43.0976 19.3806 43.9755 18.9943C44.857 18.6043 45.5285 18.0741 45.9637 17.4151C46.3985 16.7561 46.6242 16.01 46.6242 15.1995C46.6277 14.249 46.3761 13.4802 45.8812 12.9158Z" fill="currentColor"></path>
</svg>